<?xml version="1.0" encoding="utf-8"?>
<!-- Generator: Adobe Illustrator 17.0.0, SVG Export Plug-In . SVG Version: 6.00 Build 0)  -->
<!DOCTYPE svg PUBLIC "-//W3C//DTD SVG 1.1//EN" "http://www.w3.org/Graphics/SVG/1.1/DTD/svg11.dtd">
<svg version="1.1" id="Layer_1" xmlns="http://www.w3.org/2000/svg" xmlns:xlink="http://www.w3.org/1999/xlink" x="0px" y="0px"
	 width="11.676px" height="17.027px" viewBox="0 0 11.676 17.027" enable-background="new 0 0 11.676 17.027" xml:space="preserve">
<g>
	<path fill="#FFFFFF" d="M7.306,11.48c0.182,0.7,0.358,1.38,0.535,2.061c0.271,1.043,0.542,2.086,0.814,3.129
		c0.071,0.272,0.005,0.358-0.274,0.358c-1.7,0-3.399,0-5.099,0c-0.286,0-0.356-0.09-0.285-0.365
		c0.434-1.669,0.868-3.337,1.302-5.006c0.014-0.054,0.026-0.109,0.042-0.177c-1.879-0.572-3.224-1.736-3.945-3.571
		c-0.493-1.254-0.521-2.54-0.12-3.824C1.041,1.641,3.413-0.22,6.342,0.021c2.63,0.216,4.765,2.183,5.232,4.754
		c0.271,1.492,0.002,2.895-0.814,4.178C9.945,10.235,8.784,11.06,7.306,11.48z M7.204,11.073c2.104-0.465,4.357-2.7,4.042-5.81
		c-0.276-2.729-2.63-4.939-5.533-4.866C2.765,0.47,0.413,2.867,0.404,5.788c-0.01,2.996,2.267,4.9,4.049,5.271
		c0.059-0.223,0.106-0.451,0.181-0.67c0.059-0.172,0.007-0.228-0.16-0.28C2.269,9.42,0.941,7.11,1.449,4.863
		c0.52-2.295,2.637-3.778,4.981-3.49c2.04,0.251,3.687,1.946,3.887,4c0.204,2.095-1.043,4.032-3.034,4.715
		c-0.1,0.034-0.2,0.068-0.308,0.105C7.053,10.493,7.127,10.778,7.204,11.073z M6.62,8.739c0.077,0.294,0.158,0.583,0.227,0.875
		c0.03,0.127,0.08,0.148,0.202,0.111c1.993-0.601,3.234-2.732,2.775-4.766C9.346,2.841,7.286,1.435,5.128,1.82
		c-1.97,0.351-3.532,2.149-3.346,4.344c0.124,1.463,0.88,2.554,2.164,3.267C4.195,9.569,4.472,9.658,4.76,9.78
		c0.083-0.313,0.145-0.583,0.227-0.847C5.038,8.77,5.007,8.701,4.834,8.64c-1.327-0.467-2.14-1.803-1.96-3.195
		C3.097,3.723,4.754,2.543,6.448,2.9C7.736,3.171,8.676,4.2,8.821,5.56c0.126,1.186-0.515,2.392-1.657,2.948
		C6.992,8.592,6.811,8.658,6.62,8.739z M8.252,16.623c-0.8-3.067-1.595-6.116-2.39-9.164C5.847,7.46,5.833,7.462,5.819,7.464
		c-0.795,3.049-1.59,6.097-2.388,9.159C5.043,16.623,6.633,16.623,8.252,16.623z M6.481,8.296C7.505,8.203,8.449,6.942,8.413,5.74
		c-0.04-1.348-1.15-2.447-2.508-2.484C4.523,3.219,3.376,4.261,3.278,5.681C3.179,7.109,4.249,8.106,5.173,8.295
		c0.092-0.353,0.185-0.708,0.276-1.058c-0.842-0.413-1.187-1.015-1.01-1.743c0.159-0.655,0.748-1.115,1.42-1.107
		c0.66,0.007,1.253,0.489,1.388,1.126c0.159,0.75-0.184,1.329-1.04,1.73C6.298,7.592,6.39,7.946,6.481,8.296z M4.83,5.821
		C4.828,6.208,5.016,6.537,5.344,6.721C5.512,6.815,5.53,6.807,5.585,6.623C5.64,6.439,5.759,6.337,5.88,6.402
		c0.082,0.045,0.15,0.146,0.187,0.237C6.135,6.806,6.146,6.82,6.306,6.735c0.408-0.215,0.617-0.647,0.53-1.096
		c-0.104-0.541-0.548-0.864-1.12-0.815C5.217,4.868,4.833,5.299,4.83,5.821z"/>
	<path fill="#FFFFFF" d="M5.837,12.325c-0.173-0.002-0.319-0.147-0.315-0.312c0.004-0.169,0.15-0.304,0.325-0.301
		c0.169,0.003,0.301,0.135,0.301,0.303C6.148,12.193,6.013,12.327,5.837,12.325z"/>
	<path fill="#FFFFFF" d="M5.839,13.455c0.168-0.002,0.303,0.128,0.309,0.297c0.007,0.174-0.13,0.319-0.303,0.32
		c-0.176,0.001-0.301-0.12-0.305-0.295C5.536,13.599,5.667,13.457,5.839,13.455z"/>
	<path fill="#FFFFFF" d="M5.541,15.524c0.001-0.177,0.123-0.296,0.301-0.294c0.172,0.002,0.304,0.13,0.306,0.298
		c0.002,0.162-0.138,0.305-0.3,0.307C5.667,15.837,5.54,15.708,5.541,15.524z"/>
</g>
</svg>
