<?xml version="1.0" encoding="utf-8"?>
<!-- Generator: Adobe Illustrator 17.0.0, SVG Export Plug-In . SVG Version: 6.00 Build 0)  -->
<!DOCTYPE svg PUBLIC "-//W3C//DTD SVG 1.1//EN" "http://www.w3.org/Graphics/SVG/1.1/DTD/svg11.dtd">
<svg version="1.1" id="Layer_1" xmlns="http://www.w3.org/2000/svg" xmlns:xlink="http://www.w3.org/1999/xlink" x="0px" y="0px"
	 width="16.557px" height="18.897px" viewBox="0 0 16.557 18.897" enable-background="new 0 0 16.557 18.897" xml:space="preserve">
<g>
	<g>
		<g>
			<path fill="#263341" d="M9.405,7.919c0,0.622-0.504,1.126-1.126,1.126l0,0c-0.622,0-1.126-0.504-1.126-1.126V1.126
				C7.152,0.504,7.656,0,8.279,0l0,0c0.622,0,1.126,0.504,1.126,1.126V7.919z"/>
		</g>
		<g>
			<path fill="#263341" d="M13.329,4.084c-0.216-0.264-0.541-0.437-0.909-0.437c-0.651,0-1.178,0.528-1.178,1.178
				c0,0.466,0.273,0.866,0.667,1.057c-0.013,0.012-0.022,0.028-0.036,0.038c1.415,1.081,2.332,2.778,2.332,4.697
				c0,3.273-2.653,5.926-5.926,5.926s-5.926-2.653-5.926-5.926c0-1.958,0.955-3.686,2.42-4.762C4.769,5.854,4.767,5.85,4.764,5.848
				c0.358-0.202,0.603-0.582,0.603-1.022c0-0.651-0.528-1.178-1.178-1.178c-0.328,0-0.624,0.134-0.837,0.35
				C1.322,5.5,0,7.897,0,10.618c0,4.572,3.706,8.279,8.279,8.279s8.279-3.706,8.279-8.279C16.557,7.951,15.289,5.593,13.329,4.084z"
				/>
		</g>
	</g>
</g>
</svg>
