<?xml version="1.0" encoding="utf-8"?>
<!-- Generator: Adobe Illustrator 17.0.0, SVG Export Plug-In . SVG Version: 6.00 Build 0)  -->
<!DOCTYPE svg PUBLIC "-//W3C//DTD SVG 1.1//EN" "http://www.w3.org/Graphics/SVG/1.1/DTD/svg11.dtd">
<svg version="1.1" id="Layer_1" xmlns="http://www.w3.org/2000/svg" xmlns:xlink="http://www.w3.org/1999/xlink" x="0px" y="0px"
	 width="18.449px" height="11.921px" viewBox="0 0 18.449 11.921" enable-background="new 0 0 18.449 11.921" xml:space="preserve">
<path fill="#FFFFFF" d="M18.427,1.235C18.31,0.538,17.703,0,16.971,0H1.478C0.792,0,0.215,0.473,0.05,1.106L0,1.166v0.312v0.085
	v8.88c0,0.811,0.663,1.478,1.478,1.478h15.494c0.815,0,1.478-0.667,1.478-1.478v-9.19L18.427,1.235z M2.104,0.739h14.042
	L9.379,7.184L2.104,0.739z M0.958,10.959c-0.148-0.149-0.22-0.296-0.22-0.516V1.412l0.006-0.001c0.01-0.133,0.354-0.107,0.539-0.083
	l5.357,4.687L0.958,10.959z M1.845,11.182l5.516-4.666l0.286,0.099l1.731,1.528l1.77-1.563l5.455,4.602H1.845z M17.491,10.959
	l-5.682-4.944l5.722-5.006c0.049,0.056,0.091,0.113,0.12,0.175c0.02,0.003,0.04,0.008,0.06,0.011v9.248
	C17.71,10.662,17.638,10.81,17.491,10.959z"/>
</svg>
