<?xml version="1.0" encoding="utf-8"?>
<!-- Generator: Adobe Illustrator 17.0.0, SVG Export Plug-In . SVG Version: 6.00 Build 0)  -->
<!DOCTYPE svg PUBLIC "-//W3C//DTD SVG 1.1//EN" "http://www.w3.org/Graphics/SVG/1.1/DTD/svg11.dtd">
<svg version="1.1" id="Layer_1" xmlns="http://www.w3.org/2000/svg" xmlns:xlink="http://www.w3.org/1999/xlink" x="0px" y="0px"
	 width="16.934px" height="16.934px" viewBox="0 0 16.934 16.934" enable-background="new 0 0 16.934 16.934" xml:space="preserve">
<g>
	<path fill="#263341" d="M8.467,3.848c-2.547,0-4.618,2.072-4.618,4.619c0,2.546,2.072,4.618,4.618,4.618
		c2.547,0,4.618-2.072,4.618-4.618C13.085,5.92,11.013,3.848,8.467,3.848L8.467,3.848z M8.467,12.105
		c-2.006,0-3.638-1.632-3.638-3.638c0-2.006,1.632-3.639,3.638-3.639c2.006,0,3.638,1.632,3.638,3.639
		C12.105,10.473,10.473,12.105,8.467,12.105L8.467,12.105z M8.467,12.105"/>
	<path fill="#263341" d="M16.162,6.345l-0.641-0.177c-0.073-0.02-0.198-0.136-0.224-0.208l-0.182-0.448l-0.01-0.023
		c-0.032-0.069-0.026-0.241,0.012-0.308l0.323-0.569c0.225-0.397,0.152-0.939-0.171-1.262l-1.594-1.594
		c-0.191-0.191-0.466-0.3-0.754-0.3c-0.183,0-0.358,0.045-0.507,0.13l-0.539,0.306c-0.022,0.012-0.084,0.031-0.166,0.031
		c-0.071,0-0.118-0.014-0.134-0.021l-0.555-0.233l-0.023-0.009c-0.072-0.026-0.189-0.153-0.209-0.226l-0.182-0.66
		C10.486,0.332,10.05,0,9.594,0H7.34C6.884,0,6.448,0.332,6.327,0.771l-0.182,0.66c-0.02,0.074-0.138,0.201-0.21,0.227L5.338,1.912
		L5.312,1.923C5.297,1.931,5.25,1.945,5.179,1.945c-0.081,0-0.141-0.018-0.163-0.03L4.509,1.627c-0.15-0.085-0.325-0.13-0.508-0.13
		c-0.288,0-0.563,0.11-0.754,0.301L1.654,3.391C1.331,3.714,1.258,4.256,1.483,4.653L1.8,5.212c0.038,0.067,0.045,0.24,0.013,0.309
		c-0.089,0.19-0.333,0.556-0.45,0.66L0.771,6.345C0.331,6.466,0,6.902,0,7.358v2.254c0,0.456,0.332,0.892,0.771,1.013l0.641,0.177
		c0.073,0.02,0.198,0.137,0.224,0.208l0.197,0.48l0.01,0.023c0.032,0.069,0.026,0.241-0.011,0.306L1.54,12.334
		c-0.225,0.396-0.152,0.939,0.171,1.261l1.594,1.594c0.191,0.191,0.466,0.3,0.754,0.3c0.183,0,0.358-0.045,0.508-0.13l0.493-0.28
		c0.022-0.012,0.084-0.031,0.167-0.031c0.071,0,0.118,0.014,0.133,0.021l0.563,0.236l0.024,0.009
		c0.071,0.025,0.188,0.152,0.209,0.225l0.172,0.622c0.121,0.44,0.557,0.771,1.013,0.771h2.254c0.456,0,0.892-0.332,1.013-0.771
		l0.172-0.622c0.02-0.073,0.137-0.198,0.208-0.224l0.518-0.214l0.024-0.01c0.015-0.007,0.062-0.021,0.133-0.021
		c0.084,0,0.149,0.019,0.171,0.032l0.524,0.298c0.15,0.085,0.325,0.13,0.508,0.13c0.288,0,0.563-0.11,0.754-0.3l1.594-1.594
		c0.323-0.322,0.396-0.865,0.171-1.262l-0.297-0.524c-0.037-0.065-0.044-0.236-0.011-0.304l0.214-0.513l0.009-0.023
		c0.025-0.071,0.151-0.188,0.224-0.208l0.641-0.177c0.44-0.121,0.771-0.557,0.771-1.013V7.358
		C16.934,6.902,16.602,6.466,16.162,6.345L16.162,6.345z M15.902,9.68l-0.641,0.177c-0.376,0.104-0.745,0.443-0.882,0.81
		l-0.195,0.471c-0.164,0.356-0.144,0.857,0.049,1.197l0.296,0.522c0.009,0.021,0.002,0.072-0.01,0.088l-1.592,1.592
		c-0.007,0.005-0.031,0.015-0.064,0.015c-0.015,0-0.024-0.003-0.024-0.002l-0.524-0.298c-0.181-0.103-0.414-0.159-0.655-0.159
		c-0.139,0-0.344,0.019-0.542,0.11l-0.476,0.197c-0.367,0.136-0.707,0.505-0.811,0.881l-0.17,0.619
		c-0.009,0.02-0.049,0.051-0.071,0.055l-2.249,0c-0.022-0.003-0.063-0.034-0.071-0.052L7.1,15.28
		c-0.103-0.376-0.442-0.744-0.808-0.882l-0.518-0.217c-0.199-0.093-0.406-0.113-0.547-0.113c-0.239,0-0.47,0.057-0.651,0.159
		l-0.491,0.278c-0.002,0.001-0.012,0.004-0.027,0.004c-0.032,0-0.057-0.011-0.061-0.014l-1.592-1.591
		c-0.013-0.018-0.021-0.069-0.014-0.087l0.292-0.515c0.193-0.339,0.214-0.839,0.051-1.196l-0.181-0.439
		C2.418,10.3,2.049,9.961,1.673,9.857L1.035,9.681c-0.021-0.009-0.052-0.05-0.055-0.069V7.361C0.982,7.339,1.014,7.297,1.031,7.29
		l0.641-0.177C2.21,6.965,2.697,5.945,2.702,5.935c0.166-0.356,0.145-0.863-0.049-1.206L2.336,4.172
		C2.328,4.151,2.335,4.1,2.346,4.084l1.592-1.592c0.006-0.005,0.031-0.016,0.063-0.016c0.015,0,0.024,0.003,0.024,0.002l0.507,0.288
		c0.179,0.102,0.409,0.158,0.647,0.158c0.142,0,0.351-0.02,0.552-0.115l0.552-0.234c0.365-0.139,0.702-0.508,0.806-0.882L7.27,1.035
		C7.279,1.014,7.32,0.983,7.34,0.98h2.251c0.022,0.003,0.064,0.034,0.071,0.052l0.182,0.66c0.104,0.376,0.442,0.744,0.808,0.882
		l0.51,0.214c0.199,0.093,0.407,0.113,0.548,0.113c0.239,0,0.47-0.056,0.65-0.158l0.536-0.304c0.002-0.001,0.012-0.004,0.027-0.004
		c0.032,0,0.057,0.011,0.061,0.014l1.592,1.592c0.014,0.018,0.021,0.069,0.013,0.087l-0.323,0.569
		c-0.192,0.339-0.214,0.839-0.053,1.195l0.167,0.409c0.136,0.368,0.505,0.708,0.882,0.812l0.639,0.176
		c0.021,0.009,0.052,0.05,0.055,0.069l0,2.251C15.951,9.631,15.919,9.672,15.902,9.68L15.902,9.68z M15.902,9.68"/>
</g>
</svg>
