<?xml version="1.0" encoding="utf-8"?>
<!-- Generator: Adobe Illustrator 17.0.0, SVG Export Plug-In . SVG Version: 6.00 Build 0)  -->
<!DOCTYPE svg PUBLIC "-//W3C//DTD SVG 1.1//EN" "http://www.w3.org/Graphics/SVG/1.1/DTD/svg11.dtd">
<svg version="1.1" id="Layer_1" xmlns="http://www.w3.org/2000/svg" xmlns:xlink="http://www.w3.org/1999/xlink" x="0px" y="0px"
	 width="19.481px" height="19.334px" viewBox="0 0 19.481 19.334" enable-background="new 0 0 19.481 19.334" xml:space="preserve">
<g>
	<path fill="#FFFFFF" d="M2.222,16.664V2.222h11.665v12.129l2.222-1.835V1.111C16.109,0.499,15.61,0,14.997,0L1.111,0
		C0.496,0,0,0.499,0,1.111l0,16.664c0,0.613,0.496,1.111,1.111,1.111h9.693l-1.571-2.223H2.222z"/>
	<rect x="1.396" y="1.147" fill="#263341" width="13.316" height="16.593"/>
	<path fill="#FFFFFF" d="M19.307,11.943c-0.205-0.193-0.52-0.201-0.735-0.023l-5.125,5.1l-3.366-2.926
		c-0.224-0.135-0.514-0.095-0.693,0.099C9.21,14.385,9.189,14.677,9.34,14.89l3.68,4.207c0.104,0.146,0.27,0.235,0.45,0.237h0.004
		c0.177,0,0.344-0.085,0.448-0.228l5.452-6.429C19.539,12.45,19.509,12.135,19.307,11.943L19.307,11.943z M19.307,11.943"/>
	<rect x="3.225" y="4.727" fill="#FFFFFF" width="9.592" height="0.735"/>
	<rect x="3.225" y="8.06" fill="#FFFFFF" width="9.592" height="0.735"/>
	<rect x="3.225" y="11.477" fill="#FFFFFF" width="9.592" height="0.735"/>
</g>
</svg>
