<?xml version="1.0" encoding="utf-8"?>
<!-- Generator: Adobe Illustrator 17.0.0, SVG Export Plug-In . SVG Version: 6.00 Build 0)  -->
<!DOCTYPE svg PUBLIC "-//W3C//DTD SVG 1.1//EN" "http://www.w3.org/Graphics/SVG/1.1/DTD/svg11.dtd">
<svg version="1.1" id="Layer_1" xmlns="http://www.w3.org/2000/svg" xmlns:xlink="http://www.w3.org/1999/xlink" x="0px" y="0px"
	 width="41.81px" height="31.388px" viewBox="0 0 41.81 31.388" enable-background="new 0 0 41.81 31.388" xml:space="preserve">
<g>
	<path fill="#FFFFFF" d="M21.886,29.026c0,0.542-0.439,0.981-0.981,0.981l0,0c-0.542,0-0.981-0.439-0.981-0.981v-6.342
		c0-0.542,0.439-0.981,0.981-0.981l0,0c0.542,0,0.981,0.439,0.981,0.981V29.026z"/>
	<path fill="#FFFFFF" d="M11.931,31.388c-0.542,0-0.981-0.439-0.981-0.981l0,0c0-0.542,0.439-0.981,0.981-0.981h17.948
		c0.542,0,0.981,0.439,0.981,0.981l0,0c0,0.542-0.439,0.981-0.981,0.981H11.931z"/>
	<path fill="#FFFFFF" d="M34.884,12.072l-0.03,0.017l-0.03-0.017v0.035l-0.006-0.006l0,0V4.034L27.892,0l-0.03,0.017l-6.956,4.016
		L13.979,0l-0.03,0.017L6.993,4.034v8.067l-0.006,0.006v-0.035l-0.03,0.017l-0.03-0.017L0,16.105v8.067l6.865,4.007l3.758-2.156
		c0.078-0.026,0.148-0.066,0.208-0.119l0.011-0.006l-0.001-0.002c0.119-0.11,0.194-0.265,0.194-0.44c0-0.332-0.269-0.6-0.6-0.6
		c-0.154,0-0.293,0.06-0.399,0.155l-3.156,1.794l-5.694-3.323v-6.69l5.794-3.345l3.377,1.93l0.011-0.004
		c0.179,0.108,0.387,0.174,0.611,0.174c0.655,0,1.187-0.531,1.187-1.187c0-0.525-0.343-0.966-0.816-1.122l-0.001-0.003L8.18,11.41
		V4.72l5.794-3.345l5.744,3.345v6.69l-2.787,1.55c-0.438,0.17-0.75,0.593-0.75,1.091c0,0.648,0.525,1.173,1.173,1.173
		c0.144,0,0.281-0.03,0.409-0.077c0.005,0.004,0.012,0.006,0.016,0.01l3.115-1.711l2.71,1.552c0.193,0.14,0.429,0.226,0.687,0.226
		c0.648,0,1.173-0.525,1.173-1.173c0-0.486-0.295-0.902-0.716-1.08l0-0.011l-2.655-1.55V4.72l5.794-3.345L33.63,4.72l0,6.69
		l-0.011,0.006l-3.322,1.889c-0.014,0.007-0.028,0.016-0.042,0.024l-0.379,0.216c0.008,0.029,0.013,0.06,0.02,0.089
		c-0.158,0.2-0.254,0.45-0.254,0.726c0,0.655,0.531,1.187,1.187,1.187c0.224,0,0.432-0.066,0.611-0.174l0.011,0.004l3.377-1.93
		l5.794,3.345v6.69l-5.694,3.323l-3.156-1.794c-0.106-0.095-0.245-0.155-0.399-0.155c-0.332,0-0.6,0.269-0.6,0.6
		c0,0.174,0.076,0.33,0.194,0.44l-0.001,0.002l0.011,0.006c0.06,0.053,0.13,0.094,0.208,0.119l3.758,2.156l6.865-4.007v-8.067
		L34.884,12.072z"/>
</g>
</svg>
