<?xml version="1.0" encoding="utf-8"?>
<!-- Generator: Adobe Illustrator 17.0.0, SVG Export Plug-In . SVG Version: 6.00 Build 0)  -->
<!DOCTYPE svg PUBLIC "-//W3C//DTD SVG 1.1//EN" "http://www.w3.org/Graphics/SVG/1.1/DTD/svg11.dtd">
<svg version="1.1" id="Layer_1" xmlns="http://www.w3.org/2000/svg" xmlns:xlink="http://www.w3.org/1999/xlink" x="0px" y="0px"
	 width="14.461px" height="17.214px" viewBox="0 0 14.461 17.214" enable-background="new 0 0 14.461 17.214" xml:space="preserve">
<path fill="#FFFFFF" d="M14.386,7.541c-0.19-0.818-0.702-1.386-1.426-1.801c0.69-1.131,0.78-2.262-0.046-3.302
	c-0.928-1.169-2.148-1.297-3.484-0.7C9.043,0.637,8.303,0.007,7.178,0C6.053-0.007,5.328,0.655,4.923,1.679
	C3.647,1.164,2.518,1.316,1.642,2.346C0.75,3.395,0.799,4.549,1.516,5.728C1.33,5.861,1.176,5.961,1.032,6.075
	c-1.51,1.203-1.405,3.643,0.588,4.514c0.341,0.149,0.407,0.342,0.402,0.681c-0.019,1.493,1.13,2.688,2.606,2.671
	c0.517-0.006,0.755-0.177,1.336-0.284c0,1.165,0,2.36,0,3.559c0.7,0,1.884,0,2.597,0c0-1.22-0.012-3.598,0.017-3.586
	c2.174,0.906,3.798-0.217,3.895-2.576c0.006-0.144,0.17-0.349,0.31-0.408C14.042,10.118,14.694,8.871,14.386,7.541z M12.054,10.196
	c-0.122,0.051-0.264,0.23-0.269,0.354c-0.084,2.049-1.594,3.025-3.483,2.238c-0.025-0.011-0.191-0.008-0.292-0.02
	c0,1.04,0,2.908,0,3.968c-0.619,0-0.874,0-1.482,0c0-1.042,0-2.913,0-3.925c-0.504,0.093-1.109,0.242-1.558,0.247
	c-1.282,0.015-2.28-1.023-2.264-2.32c0.004-0.294-0.053-0.462-0.35-0.591C0.625,9.39,0.534,7.27,1.846,6.225
	c0.124-0.099,0.259-0.186,0.42-0.302C1.643,4.899,1.601,3.897,2.375,2.986c0.761-0.895,1.742-1.027,2.85-0.579
	c0.352-0.89,0.982-1.465,1.959-1.459c0.977,0.006,1.621,0.554,1.957,1.509c1.161-0.519,2.221-0.408,3.027,0.608
	c0.717,0.904,0.639,1.887,0.04,2.869c0.629,0.361,1.074,0.854,1.239,1.565C13.715,8.655,13.148,9.738,12.054,10.196z"/>
</svg>
