<?xml version="1.0" encoding="utf-8"?>
<!-- Generator: Adobe Illustrator 17.0.0, SVG Export Plug-In . SVG Version: 6.00 Build 0)  -->
<!DOCTYPE svg PUBLIC "-//W3C//DTD SVG 1.1//EN" "http://www.w3.org/Graphics/SVG/1.1/DTD/svg11.dtd">
<svg version="1.1" id="Layer_1" xmlns="http://www.w3.org/2000/svg" xmlns:xlink="http://www.w3.org/1999/xlink" x="0px" y="0px"
	 width="13.311px" height="15.167px" viewBox="0 0 13.311 15.167" enable-background="new 0 0 13.311 15.167" xml:space="preserve">
<g>
	<rect x="2.53" y="3.708" fill="#263341" width="7.525" height="0.577"/>
	<rect x="2.53" y="6.323" fill="#263341" width="7.525" height="0.577"/>
	<g>
		<g>
			<path fill="#263341" d="M13.31,12.428c-0.004,1.515-1.23,2.741-2.738,2.738c-1.509-0.003-2.735-1.23-2.734-2.737
				c0.001-1.511,1.233-2.74,2.741-2.735C12.087,9.7,13.314,10.928,13.31,12.428z"/>
			<path fill="#F0F3F5" d="M11.747,12.058h-0.8v-0.8c0-0.206-0.167-0.373-0.373-0.373c-0.206,0-0.373,0.167-0.373,0.373v0.8h-0.8
				c-0.206,0-0.373,0.167-0.373,0.373s0.167,0.373,0.373,0.373h0.8v0.8c0,0.206,0.167,0.373,0.373,0.373
				c0.206,0,0.373-0.167,0.373-0.373v-0.8h0.8c0.206,0,0.373-0.167,0.373-0.373S11.953,12.058,11.747,12.058z"/>
		</g>
	</g>
	<path fill="#263341" d="M9.773,9.003H2.53V9.58h5.985C8.887,9.31,9.312,9.111,9.773,9.003z"/>
	<path fill="#263341" d="M7.386,13.917H1.095V0.9h10.447v8.157c0.398,0.115,0.768,0.289,1.095,0.526V0.872
		C12.637,0.391,12.246,0,11.765,0H0.872C0.389,0,0,0.391,0,0.872v13.073c0,0.481,0.389,0.872,0.872,0.872h7.121
		C7.746,14.55,7.542,14.248,7.386,13.917z"/>
</g>
</svg>
