<?xml version="1.0" encoding="utf-8"?>
<!-- Generator: Adobe Illustrator 17.0.0, SVG Export Plug-In . SVG Version: 6.00 Build 0)  -->
<!DOCTYPE svg PUBLIC "-//W3C//DTD SVG 1.1//EN" "http://www.w3.org/Graphics/SVG/1.1/DTD/svg11.dtd">
<svg version="1.1" id="Layer_1" xmlns="http://www.w3.org/2000/svg" xmlns:xlink="http://www.w3.org/1999/xlink" x="0px" y="0px"
	 width="14.473px" height="9.352px" viewBox="0 0 14.473 9.352" enable-background="new 0 0 14.473 9.352" xml:space="preserve">
<path fill="#263341" d="M14.456,0.969C14.364,0.422,13.887,0,13.314,0H1.159c-0.538,0-0.99,0.371-1.12,0.868L0,0.915v0.244v0.067
	v6.966c0,0.636,0.52,1.159,1.159,1.159h12.155c0.639,0,1.159-0.523,1.159-1.159V0.983L14.456,0.969z M1.651,0.58h11.016L7.357,5.636
	L1.651,0.58z M0.752,8.597C0.636,8.48,0.58,8.364,0.58,8.192V1.108l0.005-0.001c0.008-0.104,0.278-0.084,0.423-0.065l4.203,3.677
	L0.752,8.597z M1.447,8.772l4.328-3.661l0.224,0.078l1.358,1.199l1.389-1.226l4.279,3.61H1.447z M13.721,8.597L9.263,4.718
	l4.489-3.927c0.039,0.044,0.071,0.089,0.094,0.137c0.016,0.002,0.031,0.006,0.047,0.009v7.255
	C13.893,8.364,13.837,8.48,13.721,8.597z"/>
</svg>
