<?xml version="1.0" encoding="utf-8"?>
<!-- Generator: Adobe Illustrator 17.0.0, SVG Export Plug-In . SVG Version: 6.00 Build 0)  -->
<!DOCTYPE svg PUBLIC "-//W3C//DTD SVG 1.1//EN" "http://www.w3.org/Graphics/SVG/1.1/DTD/svg11.dtd">
<svg version="1.1" id="Layer_1" xmlns="http://www.w3.org/2000/svg" xmlns:xlink="http://www.w3.org/1999/xlink" x="0px" y="0px"
	 width="24.625px" height="24.624px" viewBox="0 0 24.625 24.624" enable-background="new 0 0 24.625 24.624" xml:space="preserve">
<g>
	<path fill="#F49A43" d="M24.625,12.301c-0.017,6.817-5.535,12.336-12.322,12.323C5.51,24.611-0.005,19.091,0,12.309
		C0.005,5.511,5.549-0.023,12.334,0C19.12,0.023,24.642,5.549,24.625,12.301z"/>
	<g>
		<path fill="#F28D2E" d="M22.792,12.303c-0.014,5.802-4.711,10.5-10.488,10.488C6.523,22.78,1.829,18.082,1.833,12.31
			C1.837,6.523,6.556,1.814,12.33,1.833C18.107,1.852,22.806,6.556,22.792,12.303z"/>
		<path fill="#F0F3F5" d="M16.805,10.884H13.74V7.819c0-0.788-0.639-1.428-1.428-1.428s-1.428,0.639-1.428,1.428v3.065H7.82
			c-0.788,0-1.428,0.639-1.428,1.428c0,0.788,0.639,1.428,1.428,1.428h3.065v3.065c0,0.788,0.639,1.428,1.428,1.428
			s1.428-0.639,1.428-1.428V13.74h3.065c0.788,0,1.428-0.639,1.428-1.428C18.233,11.524,17.594,10.884,16.805,10.884z"/>
	</g>
</g>
</svg>
