<?xml version="1.0" encoding="utf-8"?>
<!-- Generator: Adobe Illustrator 17.0.0, SVG Export Plug-In . SVG Version: 6.00 Build 0)  -->
<!DOCTYPE svg PUBLIC "-//W3C//DTD SVG 1.1//EN" "http://www.w3.org/Graphics/SVG/1.1/DTD/svg11.dtd">
<svg version="1.1" id="Layer_1" xmlns="http://www.w3.org/2000/svg" xmlns:xlink="http://www.w3.org/1999/xlink" x="0px" y="0px"
	 width="22.54px" height="22.049px" viewBox="0 0 22.54 22.049" enable-background="new 0 0 22.54 22.049" xml:space="preserve">
<g>
	<path fill="#FFFFFF" d="M16.374,6.067c0.019-1.592,0.011-3.185,0.01-4.778c-0.001-0.839-0.437-1.286-1.277-1.287
		C10.511-0.001,5.915-0.001,1.319,0.002c-0.856,0-1.316,0.454-1.317,1.301c-0.003,6.468-0.003,12.937,0,19.405
		c0,0.88,0.455,1.337,1.319,1.338c3.733,0.002,7.465,0.009,11.198-0.014c0.281-0.002,0.624-0.152,0.831-0.347
		c0.962-0.91,1.892-1.855,2.818-2.803c0.119-0.121,0.206-0.33,0.207-0.5c0.015-1.629,0.01-10.076,0.009-11.705L16.374,6.067z"/>
	<path fill="#364759" d="M12.717,14.618c0.101-0.679,0.194-1.299,0.284-1.92c0.033-0.227,0.05-0.458,0.096-0.682
		c0.028-0.137,0.074-0.284,0.155-0.395c0.808-1.106,1.627-2.203,2.438-3.307c1.438-1.957,2.872-3.917,4.308-5.875
		c0.278-0.379,0.51-0.462,0.959-0.304c0.589,0.208,1.065,0.576,1.425,1.087c0.2,0.284,0.223,0.544-0.01,0.858
		c-1.505,2.028-2.991,4.07-4.483,6.107c-0.758,1.036-1.511,2.076-2.281,3.103c-0.116,0.155-0.293,0.291-0.472,0.366
		C14.357,13.983,13.566,14.284,12.717,14.618z"/>
	<path fill="#FFFFFF" d="M20.764,3.097c-0.099,0.129-0.173,0.222-0.243,0.318c-0.704,0.958-1.408,1.917-2.112,2.876
		c-1.32,1.799-2.638,3.6-3.962,5.397c-0.292,0.396-0.507,0.81-0.454,1.311c0.724-0.033,1.048-0.583,1.41-1.078
		c1.512-2.066,3.021-4.134,4.531-6.202c0.506-0.693,1.011-1.386,1.541-2.112C21.225,3.427,21.004,3.269,20.764,3.097z"/>
	<rect x="2.484" y="5.64" fill="#364759" width="10.717" height="0.988"/>
	<rect x="2.484" y="8.642" fill="#364759" width="10.717" height="0.988"/>
	<rect x="2.484" y="11.644" fill="#364759" width="8.665" height="0.988"/>
	<rect x="2.484" y="14.646" fill="#364759" width="8.665" height="0.988"/>
</g>
</svg>
