<?xml version="1.0" encoding="utf-8"?>
<!-- Generator: Adobe Illustrator 17.0.0, SVG Export Plug-In . SVG Version: 6.00 Build 0)  -->
<!DOCTYPE svg PUBLIC "-//W3C//DTD SVG 1.1//EN" "http://www.w3.org/Graphics/SVG/1.1/DTD/svg11.dtd">
<svg version="1.1" id="Layer_1" xmlns="http://www.w3.org/2000/svg" xmlns:xlink="http://www.w3.org/1999/xlink" x="0px" y="0px"
	 width="15.379px" height="20.122px" viewBox="0 0 15.379 20" enable-background="new 0 0 15.379 24.122" xml:space="preserve">
<g>
	<g>
		<g>
			<g>
				<path fill="#F49A43" d="M11.922,8.185c-1.91,0-3.458,1.549-3.458,3.458c0,1.908,1.549,3.457,3.458,3.457
					c1.909,0,3.457-1.549,3.457-3.457C15.379,9.733,13.831,8.185,11.922,8.185L11.922,8.185z M12.144,14.199v-0.299
					c0-0.124-0.099-0.223-0.222-0.223c-0.124,0-0.223,0.099-0.223,0.223v0.299c-1.238-0.108-2.227-1.096-2.333-2.334h0.299
					c0.122,0,0.223-0.099,0.223-0.222c0-0.125-0.101-0.223-0.223-0.223H9.366c0.106-1.238,1.095-2.227,2.333-2.333v0.299
					c0,0.122,0.099,0.223,0.223,0.223c0.122,0,0.222-0.101,0.222-0.223V9.087c1.238,0.106,2.228,1.095,2.333,2.333h-0.299
					c-0.122,0-0.222,0.099-0.222,0.223c0,0.122,0.099,0.222,0.222,0.222h0.299C14.372,13.103,13.382,14.091,12.144,14.199
					L12.144,14.199z M12.144,14.199"/>
				<path fill="#F49A43" d="M13.21,11.308h-0.802c-0.107-0.153-0.284-0.256-0.486-0.256c-0.004,0-0.007,0.001-0.007,0.001
					l-0.733-1.029c-0.108-0.149-0.315-0.185-0.466-0.079c-0.15,0.107-0.186,0.316-0.078,0.467l0.731,1.029
					c-0.022,0.063-0.037,0.13-0.037,0.202c0,0.326,0.263,0.59,0.59,0.59c0.202,0,0.38-0.102,0.486-0.256h0.802
					c0.185,0,0.334-0.149,0.334-0.334C13.544,11.458,13.395,11.308,13.21,11.308L13.21,11.308z M13.21,11.308"/>
			</g>
			<path fill="#F49A43" d="M4.258,7.513c0-0.171-0.138-0.309-0.309-0.309H2.871c-0.171,0-0.309,0.138-0.309,0.309v1.078
				c0,0.171,0.138,0.309,0.309,0.309h1.079c0.171,0,0.309-0.138,0.309-0.309V7.513z M4.258,7.513"/>
			<path fill="#F49A43" d="M7.544,7.513c0-0.171-0.138-0.309-0.309-0.309H6.157c-0.171,0-0.309,0.138-0.309,0.309v1.078
				c0,0.171,0.138,0.309,0.309,0.309h1.079c0.17,0,0.309-0.138,0.309-0.309V7.513z M7.544,7.513"/>
			<path fill="#F49A43" d="M4.258,10.21c0-0.171-0.138-0.309-0.309-0.309H2.871c-0.171,0-0.309,0.138-0.309,0.309v1.078
				c0,0.171,0.138,0.309,0.309,0.309h1.079c0.171,0,0.309-0.138,0.309-0.309V10.21z M4.258,10.21"/>
			<path fill="#F49A43" d="M7.544,10.21c0-0.171-0.138-0.309-0.309-0.309H6.157c-0.171,0-0.309,0.138-0.309,0.309v1.078
				c0,0.171,0.138,0.309,0.309,0.309h1.079c0.17,0,0.309-0.138,0.309-0.309V10.21z M7.544,10.21"/>
			<path fill="#F49A43" d="M2.755,3.625h0.841c0.255,0,0.462-0.207,0.462-0.462V0.462C4.059,0.207,3.852,0,3.596,0H2.755
				C2.499,0,2.292,0.207,2.292,0.462v2.701C2.292,3.419,2.499,3.625,2.755,3.625L2.755,3.625z M2.755,3.625"/>
			<path fill="#F49A43" d="M10.145,3.625h0.841c0.255,0,0.462-0.207,0.462-0.462V0.462C11.449,0.207,11.242,0,10.987,0h-0.841
				C9.89,0,9.683,0.207,9.683,0.462v2.701C9.683,3.419,9.89,3.625,10.145,3.625L10.145,3.625z M10.145,3.625"/>
			<g>
				<path fill="#F49A43" d="M7.906,12.69h-5.97c-0.291,0-0.528-0.236-0.528-0.528V6.43c0-0.291,0.236-0.528,0.528-0.528h9.869
					c0.292,0,0.528,0.236,0.528,0.528v1.141c0.561,0.005,0.723,0.124,1.208,0.334V2.736c0-0.662-0.535-1.2-1.185-1.22v1.647
					c0,0.745-0.604,1.345-1.349,1.345h-0.851c-0.745,0-1.357-0.6-1.357-1.345V1.51H4.965v1.653c0,0.745-0.612,1.345-1.357,1.345
					H2.758c-0.744,0-1.348-0.6-1.348-1.345V1.516c-0.651,0.02-1.185,0.558-1.185,1.22v9.655c0,0.674,0.547,1.228,1.221,1.228h6.917
					C8.14,13.221,7.984,13.155,7.906,12.69z"/>
			</g>
			<path fill="#F49A43" d="M8.93,8.88c0.412-0.446,0.922-0.799,1.496-1.026V7.513c0-0.171-0.138-0.309-0.309-0.309H9.039
				c-0.171,0-0.309,0.138-0.309,0.309v1.078C8.73,8.724,8.813,8.836,8.93,8.88z"/>
		</g>
	</g>
</g>
</svg>
