<?xml version="1.0" encoding="utf-8"?>
<!-- Generator: Adobe Illustrator 17.0.0, SVG Export Plug-In . SVG Version: 6.00 Build 0)  -->
<!DOCTYPE svg PUBLIC "-//W3C//DTD SVG 1.1//EN" "http://www.w3.org/Graphics/SVG/1.1/DTD/svg11.dtd">
<svg version="1.1" id="Layer_1" xmlns="http://www.w3.org/2000/svg" xmlns:xlink="http://www.w3.org/1999/xlink" x="0px" y="0px"
	 width="31.41px" height="31.409px" viewBox="0 0 31.41 31.409" enable-background="new 0 0 31.41 31.409" xml:space="preserve">
<g>
	<path fill="#A4C0CE" d="M28.453,6.657c4.187,5.408,4.34,14.737-2.228,20.698c-6.575,5.968-16.733,5.259-22.531-1.548
		C-1.995,19.127-1.003,8.961,5.91,3.44c6.959-5.557,16.699-4.068,21.82,2.216L28.453,6.657z"/>
	<path fill="#FFFFFF" d="M28.453,6.657c-4.578,3.339-9.158,6.679-13.771,10.043c-1.525-1.292-3.026-2.565-4.551-3.857
		c-1.068,0.951-2.102,1.871-3.195,2.843c2.598,2.477,5.175,4.932,7.767,7.403c4.402-3.961,11.002-9.751,15.365-13.679
		C30.07,9.411,29.445,7.929,28.453,6.657z"/>
</g>
</svg>
