<?xml version="1.0" encoding="utf-8"?>
<!-- Generator: Adobe Illustrator 17.0.0, SVG Export Plug-In . SVG Version: 6.00 Build 0)  -->
<!DOCTYPE svg PUBLIC "-//W3C//DTD SVG 1.1//EN" "http://www.w3.org/Graphics/SVG/1.1/DTD/svg11.dtd">
<svg version="1.1" id="Layer_1" xmlns="http://www.w3.org/2000/svg" xmlns:xlink="http://www.w3.org/1999/xlink" x="0px" y="0px"
	 width="16.663px" height="16.663px" viewBox="0 0 16.663 16.663" enable-background="new 0 0 16.663 16.663" xml:space="preserve">
<g>
	<path fill="#FFFFFF" d="M15.095,3.531c2.221,2.869,2.302,7.818-1.182,10.981c-3.488,3.166-8.877,2.79-11.953-0.821
		c-3.018-3.544-2.492-8.937,1.175-11.866C6.827-1.123,11.994-0.333,14.711,3L15.095,3.531z"/>
	<path fill="#364759" d="M15.095,3.531c-2.429,1.771-4.858,3.543-7.306,5.328C6.98,8.174,6.183,7.499,5.375,6.813
		C4.808,7.318,4.259,7.806,3.68,8.322c1.378,1.314,2.745,2.617,4.121,3.928c2.335-2.101,5.836-5.173,8.152-7.257
		C15.952,4.993,15.621,4.206,15.095,3.531z"/>
</g>
</svg>
