<?xml version="1.0" encoding="utf-8"?>
<!-- Generator: Adobe Illustrator 17.0.0, SVG Export Plug-In . SVG Version: 6.00 Build 0)  -->
<!DOCTYPE svg PUBLIC "-//W3C//DTD SVG 1.1//EN" "http://www.w3.org/Graphics/SVG/1.1/DTD/svg11.dtd">
<svg version="1.1" id="Layer_1" xmlns="http://www.w3.org/2000/svg" xmlns:xlink="http://www.w3.org/1999/xlink" x="0px" y="0px"
	 width="16.663px" height="16.706px" viewBox="0 0 16.663 16.706" enable-background="new 0 0 16.663 16.706" xml:space="preserve">
<g>
	<path fill="#FFFFFF" d="M3.634,2.333c0.224-0.001,0.399-0.177,0.4-0.403c0.001-0.229-0.167-0.404-0.393-0.407
		C3.409,1.52,3.219,1.706,3.223,1.934C3.226,2.149,3.416,2.334,3.634,2.333z M1.825,12.327C1.82,12.1,1.648,11.931,1.422,11.931
		c-0.224,0.001-0.403,0.177-0.406,0.398c-0.003,0.224,0.195,0.416,0.421,0.41C1.661,12.733,1.829,12.555,1.825,12.327z
		 M2.807,13.682c0.005-0.226-0.163-0.402-0.39-0.409c-0.224-0.007-0.407,0.161-0.417,0.384C1.989,13.89,2.17,14.082,2.4,14.082
		C2.618,14.082,2.802,13.901,2.807,13.682z M5.473,1.082c-0.005-0.216-0.195-0.401-0.409-0.4C4.838,0.684,4.655,0.88,4.666,1.111
		c0.011,0.227,0.189,0.392,0.415,0.384C5.301,1.486,5.478,1.3,5.473,1.082z M1.816,4.391c0.005-0.224-0.165-0.409-0.384-0.419
		C1.214,3.963,1.021,4.138,1.01,4.357c-0.012,0.23,0.17,0.425,0.4,0.427C1.636,4.786,1.811,4.616,1.816,4.391z M1.142,5.902
		C1.14,5.674,0.97,5.503,0.744,5.501C0.524,5.498,0.336,5.679,0.332,5.894C0.329,6.115,0.53,6.318,0.748,6.311
		C0.967,6.305,1.145,6.121,1.142,5.902z M7.053,0.577C7.051,0.359,6.867,0.174,6.651,0.172C6.418,0.171,6.24,0.354,6.246,0.59
		c0.006,0.226,0.18,0.392,0.408,0.389C6.876,0.976,7.056,0.796,7.053,0.577z M4.036,14.784c-0.004-0.222-0.185-0.404-0.403-0.405
		c-0.212-0.001-0.405,0.19-0.407,0.404c-0.002,0.227,0.191,0.415,0.421,0.41C3.874,15.19,4.04,15.014,4.036,14.784z M2.389,2.632
		c-0.222,0.006-0.396,0.187-0.395,0.41C1.995,3.278,2.18,3.451,2.417,3.44C2.641,3.43,2.813,3.245,2.804,3.024
		C2.796,2.806,2.606,2.626,2.389,2.632z M0.806,7.517c-0.006-0.22-0.187-0.392-0.411-0.39C0.156,7.13-0.01,7.308,0.001,7.549
		c0.01,0.216,0.182,0.386,0.391,0.387C0.614,7.936,0.812,7.736,0.806,7.517z M5.079,16.018c0.224-0.001,0.398-0.176,0.397-0.399
		c-0.001-0.224-0.173-0.401-0.395-0.405c-0.227-0.004-0.416,0.187-0.411,0.414C4.675,15.849,4.854,16.019,5.079,16.018z
		 M6.646,16.54c0.218,0.006,0.405-0.171,0.413-0.39c0.008-0.222-0.163-0.408-0.382-0.417c-0.235-0.009-0.423,0.166-0.425,0.397
		C6.25,16.35,6.427,16.534,6.646,16.54z M1.146,10.815c0.002-0.222-0.171-0.404-0.39-0.411c-0.213-0.007-0.406,0.176-0.413,0.391
		c-0.008,0.231,0.173,0.416,0.407,0.415C0.978,11.211,1.144,11.046,1.146,10.815z M0.806,9.177C0.8,8.963,0.608,8.782,0.392,8.786
		C0.167,8.79-0.002,8.966,0,9.192c0.002,0.238,0.183,0.411,0.418,0.399C0.639,9.58,0.813,9.395,0.806,9.177z"/>
	<path fill="#FFFFFF" d="M7.888,0c2.447,0.059,5.01,0.979,6.648,2.799c1.413,1.57,2.104,3.435,2.126,5.546
		c0.027,4.054-2.974,7.604-6.98,8.241c-0.423,0.067-0.853,0.09-1.281,0.118c-0.293,0.019-0.498-0.138-0.513-0.375"/>
	<path fill="#FFFFFF" d="M3.634,2.333C3.416,2.334,3.226,2.149,3.223,1.934C3.219,1.706,3.409,1.52,3.642,1.523
		C3.867,1.526,4.036,1.701,4.034,1.93C4.033,2.156,3.858,2.332,3.634,2.333z"/>
	<path fill="#FFFFFF" d="M1.825,12.327c0.004,0.227-0.164,0.406-0.388,0.412c-0.226,0.006-0.424-0.187-0.421-0.41
		c0.003-0.221,0.182-0.397,0.406-0.398C1.648,11.931,1.82,12.1,1.825,12.327z"/>
	<path fill="#FFFFFF" d="M2.807,13.682c-0.005,0.219-0.189,0.4-0.406,0.4c-0.23,0-0.411-0.192-0.401-0.425
		c0.01-0.223,0.193-0.391,0.417-0.384C2.643,13.28,2.811,13.456,2.807,13.682z"/>
	<path fill="#FFFFFF" d="M5.473,1.082C5.478,1.3,5.301,1.486,5.081,1.494C4.855,1.502,4.677,1.337,4.666,1.111
		C4.655,0.88,4.838,0.684,5.064,0.683C5.278,0.682,5.467,0.867,5.473,1.082z"/>
	<path fill="#FFFFFF" d="M1.816,4.391C1.811,4.616,1.636,4.786,1.41,4.784c-0.229-0.002-0.411-0.197-0.4-0.427
		c0.011-0.218,0.203-0.393,0.422-0.384C1.651,3.982,1.821,4.167,1.816,4.391z"/>
	<path fill="#FFFFFF" d="M1.142,5.902c0.002,0.219-0.175,0.403-0.394,0.41C0.53,6.318,0.329,6.115,0.332,5.894
		c0.003-0.215,0.192-0.395,0.412-0.393C0.97,5.503,1.14,5.674,1.142,5.902z"/>
	<path fill="#FFFFFF" d="M7.053,0.577c0.003,0.219-0.177,0.4-0.4,0.402C6.425,0.982,6.252,0.816,6.246,0.59
		C6.24,0.354,6.418,0.171,6.651,0.172C6.867,0.174,7.051,0.359,7.053,0.577z"/>
	<path fill="#FFFFFF" d="M4.036,14.784c0.004,0.23-0.162,0.405-0.389,0.41c-0.231,0.005-0.423-0.183-0.421-0.41
		c0.002-0.214,0.195-0.405,0.407-0.404C3.851,14.381,4.032,14.563,4.036,14.784z"/>
	<path fill="#FFFFFF" d="M2.389,2.632c0.216-0.006,0.407,0.174,0.415,0.393C2.813,3.245,2.641,3.43,2.417,3.44
		C2.18,3.451,1.995,3.278,1.994,3.041C1.993,2.818,2.168,2.638,2.389,2.632z"/>
	<path fill="#FFFFFF" d="M0.806,7.517c0.006,0.219-0.192,0.419-0.414,0.419C0.183,7.935,0.011,7.765,0.001,7.549
		C-0.01,7.308,0.156,7.13,0.395,7.127C0.619,7.125,0.801,7.297,0.806,7.517z"/>
	<path fill="#FFFFFF" d="M5.079,16.018c-0.225,0.001-0.404-0.169-0.409-0.39c-0.005-0.227,0.184-0.418,0.411-0.414
		c0.222,0.004,0.395,0.181,0.395,0.405C5.477,15.842,5.303,16.017,5.079,16.018z"/>
	<path fill="#FFFFFF" d="M6.646,16.54c-0.219-0.006-0.396-0.19-0.394-0.41c0.002-0.231,0.19-0.407,0.425-0.397
		c0.22,0.009,0.39,0.195,0.382,0.417C7.051,16.369,6.864,16.546,6.646,16.54z"/>
	<path fill="#FFFFFF" d="M1.146,10.815c-0.002,0.231-0.167,0.396-0.397,0.396c-0.234,0-0.415-0.185-0.407-0.415
		c0.007-0.215,0.2-0.398,0.413-0.391C0.975,10.412,1.147,10.593,1.146,10.815z"/>
	<path fill="#FFFFFF" d="M0.806,9.177C0.813,9.395,0.639,9.58,0.418,9.591C0.183,9.604,0.002,9.431,0,9.192
		C-0.002,8.966,0.167,8.79,0.392,8.786C0.608,8.782,0.8,8.963,0.806,9.177z"/>
	<path fill="#364759" d="M6.966,9.834c0.272-0.292,0.503-0.553,0.748-0.8c1.087-1.092,2.177-2.181,3.267-3.269
		c0.365-0.364,0.721-0.408,0.994-0.126c0.257,0.266,0.211,0.64-0.125,0.977c-1.447,1.448-2.894,2.896-4.342,4.342
		c-0.404,0.404-0.694,0.406-1.095,0.009C5.847,10.405,5.282,9.841,4.72,9.273C4.417,8.967,4.39,8.608,4.641,8.349
		C4.91,8.073,5.258,8.095,5.586,8.423C6.037,8.875,6.48,9.336,6.966,9.834z"/>
	<path fill="#FFFFFF" d="M7.787,8.962C7.763,8.986,7.739,9.01,7.715,9.035c-0.245,0.247-0.476,0.508-0.748,0.8
		C6.48,9.336,6.037,8.875,5.586,8.423C5.259,8.094,4.91,8.073,4.641,8.349C4.39,8.608,4.417,8.967,4.72,9.273
		c0.562,0.567,1.127,1.131,1.694,1.694c0.401,0.397,0.69,0.395,1.095-0.009c0.093-0.093,0.185-0.185,0.278-0.278V8.962z"/>
</g>
</svg>
