<?xml version="1.0" encoding="utf-8"?>
<!-- Generator: Adobe Illustrator 17.0.0, SVG Export Plug-In . SVG Version: 6.00 Build 0)  -->
<!DOCTYPE svg PUBLIC "-//W3C//DTD SVG 1.1//EN" "http://www.w3.org/Graphics/SVG/1.1/DTD/svg11.dtd">
<svg version="1.1" id="Layer_1" xmlns="http://www.w3.org/2000/svg" xmlns:xlink="http://www.w3.org/1999/xlink" x="0px" y="0px"
	 width="31.156px" height="31.235px" viewBox="0 0 31.156 31.235" enable-background="new 0 0 31.156 31.235" xml:space="preserve">
<g>
	<path fill="#A4C0CE" d="M6.794,4.362c0.42-0.002,0.746-0.33,0.749-0.753c0.003-0.428-0.313-0.755-0.734-0.76
		C6.373,2.843,6.019,3.189,6.026,3.615C6.032,4.018,6.388,4.364,6.794,4.362z M3.412,23.049c-0.008-0.426-0.33-0.742-0.754-0.741
		c-0.418,0.001-0.754,0.33-0.759,0.744c-0.006,0.418,0.364,0.778,0.788,0.767C3.106,23.808,3.421,23.474,3.412,23.049z
		 M5.248,25.582c0.009-0.423-0.305-0.751-0.73-0.764c-0.419-0.013-0.76,0.302-0.779,0.718c-0.02,0.435,0.319,0.793,0.749,0.794
		C4.895,26.33,5.239,25.991,5.248,25.582z M10.233,2.024c-0.01-0.403-0.364-0.749-0.764-0.747c-0.423,0.002-0.765,0.369-0.745,0.8
		C8.744,2.5,9.078,2.809,9.5,2.794C9.911,2.779,10.243,2.431,10.233,2.024z M3.396,8.21c0.009-0.418-0.309-0.765-0.718-0.783
		C2.27,7.41,1.91,7.738,1.889,8.146C1.867,8.576,2.208,8.94,2.637,8.945C3.059,8.949,3.387,8.632,3.396,8.21z M2.136,11.035
		c-0.005-0.425-0.323-0.745-0.745-0.75c-0.41-0.004-0.763,0.332-0.769,0.734c-0.006,0.414,0.37,0.793,0.778,0.781
		C1.809,11.789,2.14,11.444,2.136,11.035z M13.188,1.078c-0.005-0.408-0.348-0.753-0.753-0.756C12,0.319,11.667,0.663,11.678,1.103
		c0.011,0.423,0.336,0.733,0.763,0.728C12.857,1.825,13.193,1.488,13.188,1.078z M7.547,27.643
		c-0.008-0.414-0.346-0.755-0.753-0.757c-0.397-0.002-0.758,0.356-0.762,0.756c-0.004,0.424,0.356,0.775,0.787,0.767
		C7.243,28.401,7.555,28.073,7.547,27.643z M4.467,4.921C4.053,4.932,3.727,5.27,3.729,5.687c0.002,0.441,0.347,0.766,0.79,0.745
		c0.419-0.02,0.74-0.365,0.724-0.777C5.228,5.246,4.872,4.91,4.467,4.921z M1.508,14.055c-0.011-0.412-0.35-0.733-0.769-0.729
		c-0.446,0.005-0.757,0.338-0.736,0.789c0.019,0.403,0.34,0.722,0.731,0.723C1.149,14.839,1.519,14.465,1.508,14.055z M9.497,29.95
		c0.419-0.002,0.744-0.329,0.743-0.746c-0.001-0.418-0.324-0.749-0.739-0.757c-0.424-0.008-0.779,0.349-0.769,0.774
		C8.742,29.634,9.076,29.952,9.497,29.95z M12.426,30.925c0.407,0.011,0.757-0.319,0.772-0.729c0.015-0.415-0.304-0.763-0.715-0.779
		c-0.439-0.018-0.79,0.311-0.794,0.743C11.686,30.57,12.016,30.914,12.426,30.925z M2.142,20.222
		c0.003-0.416-0.319-0.755-0.729-0.768c-0.398-0.012-0.759,0.329-0.773,0.732c-0.015,0.431,0.324,0.777,0.761,0.776
		C1.829,20.962,2.139,20.654,2.142,20.222z M1.508,17.159c-0.012-0.401-0.371-0.74-0.775-0.732C0.313,16.436-0.003,16.764,0,17.187
		c0.004,0.446,0.342,0.769,0.781,0.746C1.196,17.912,1.52,17.566,1.508,17.159z"/>
	<path fill="#A4C0CE" d="M14.75,0c4.576,0.111,9.368,1.831,12.43,5.234c2.642,2.936,3.935,6.422,3.976,10.371
		c0.05,7.581-5.562,14.217-13.051,15.408c-0.79,0.126-1.595,0.169-2.396,0.22c-0.547,0.035-0.931-0.257-0.959-0.702"/>
	<path fill="#A4C0CE" d="M6.794,4.362C6.388,4.364,6.032,4.018,6.026,3.615C6.019,3.189,6.373,2.843,6.809,2.849
		c0.421,0.006,0.737,0.333,0.734,0.76C7.54,4.032,7.214,4.36,6.794,4.362z"/>
	<path fill="#A4C0CE" d="M3.412,23.049c0.008,0.425-0.306,0.759-0.725,0.77c-0.423,0.011-0.793-0.349-0.788-0.767
		c0.005-0.414,0.341-0.743,0.759-0.744C3.082,22.307,3.404,22.623,3.412,23.049z"/>
	<path fill="#A4C0CE" d="M5.248,25.582c-0.009,0.41-0.353,0.748-0.76,0.748c-0.431,0-0.769-0.359-0.749-0.794
		c0.019-0.417,0.36-0.731,0.779-0.718C4.943,24.831,5.256,25.159,5.248,25.582z"/>
	<path fill="#A4C0CE" d="M10.233,2.024c0.01,0.407-0.321,0.755-0.733,0.77C9.078,2.809,8.744,2.5,8.724,2.076
		c-0.02-0.43,0.321-0.797,0.745-0.8C9.869,1.275,10.223,1.621,10.233,2.024z"/>
	<path fill="#A4C0CE" d="M3.396,8.21C3.387,8.632,3.059,8.949,2.637,8.945C2.208,8.94,1.867,8.576,1.889,8.146
		C1.91,7.738,2.27,7.41,2.678,7.428C3.087,7.445,3.405,7.792,3.396,8.21z"/>
	<path fill="#A4C0CE" d="M2.136,11.035c0.004,0.409-0.327,0.754-0.736,0.766c-0.408,0.012-0.784-0.366-0.778-0.781
		c0.006-0.402,0.359-0.739,0.769-0.734C1.813,10.29,2.131,10.61,2.136,11.035z"/>
	<path fill="#A4C0CE" d="M13.188,1.078c0.005,0.409-0.33,0.747-0.747,0.752c-0.427,0.006-0.752-0.305-0.763-0.728
		C11.667,0.663,12,0.319,12.435,0.322C12.84,0.326,13.183,0.67,13.188,1.078z"/>
	<path fill="#A4C0CE" d="M7.547,27.643c0.008,0.43-0.304,0.757-0.728,0.766c-0.431,0.009-0.792-0.342-0.787-0.767
		c0.004-0.4,0.365-0.758,0.762-0.756C7.201,26.889,7.539,27.229,7.547,27.643z"/>
	<path fill="#A4C0CE" d="M4.467,4.921c0.405-0.011,0.76,0.326,0.776,0.734C5.26,6.067,4.938,6.412,4.519,6.432
		c-0.444,0.021-0.788-0.304-0.79-0.745C3.727,5.27,4.053,4.932,4.467,4.921z"/>
	<path fill="#A4C0CE" d="M1.508,14.055c0.011,0.41-0.359,0.784-0.775,0.783c-0.39-0.001-0.712-0.319-0.731-0.723
		c-0.021-0.451,0.29-0.784,0.736-0.789C1.157,13.322,1.497,13.643,1.508,14.055z"/>
	<path fill="#A4C0CE" d="M9.497,29.95c-0.421,0.003-0.755-0.316-0.765-0.729c-0.01-0.425,0.345-0.782,0.769-0.774
		c0.415,0.008,0.738,0.339,0.739,0.757C10.241,29.621,9.916,29.947,9.497,29.95z"/>
	<path fill="#A4C0CE" d="M12.426,30.925c-0.41-0.011-0.74-0.355-0.737-0.766c0.004-0.432,0.355-0.76,0.794-0.743
		c0.411,0.016,0.73,0.364,0.715,0.779C13.183,30.606,12.833,30.936,12.426,30.925z"/>
	<path fill="#A4C0CE" d="M2.142,20.222c-0.003,0.431-0.313,0.74-0.742,0.74c-0.437,0-0.775-0.345-0.761-0.776
		c0.014-0.403,0.375-0.744,0.773-0.732C1.823,19.467,2.145,19.806,2.142,20.222z"/>
	<path fill="#A4C0CE" d="M1.508,17.159c0.012,0.407-0.312,0.753-0.726,0.774C0.342,17.956,0.004,17.633,0,17.187
		c-0.003-0.423,0.313-0.751,0.733-0.759C1.137,16.419,1.495,16.758,1.508,17.159z"/>
	<path fill="#FFFFFF" d="M13.026,18.388c0.509-0.546,0.941-1.034,1.399-1.495c2.032-2.042,4.071-4.077,6.109-6.113
		c0.682-0.681,1.348-0.763,1.858-0.235c0.481,0.497,0.395,1.197-0.234,1.827c-2.705,2.708-5.41,5.414-8.118,8.119
		c-0.756,0.755-1.298,0.76-2.048,0.016c-1.06-1.051-2.116-2.106-3.167-3.167c-0.567-0.573-0.617-1.244-0.147-1.728
		c0.502-0.517,1.153-0.477,1.765,0.137C11.287,16.594,12.115,17.455,13.026,18.388z"/>
	<path fill="#A4C0CE" d="M14.561,16.757c-0.045,0.045-0.09,0.09-0.136,0.136c-0.458,0.461-0.89,0.949-1.399,1.495
		c-0.91-0.932-1.738-1.793-2.582-2.639c-0.612-0.614-1.264-0.653-1.766-0.137c-0.469,0.483-0.42,1.155,0.148,1.728
		c1.051,1.06,2.107,2.116,3.167,3.167c0.75,0.743,1.291,0.739,2.048-0.016c0.173-0.173,0.346-0.347,0.519-0.52V16.757z"/>
</g>
</svg>
