<?xml version="1.0" encoding="utf-8"?>
<!-- Generator: Adobe Illustrator 17.0.0, SVG Export Plug-In . SVG Version: 6.00 Build 0)  -->
<!DOCTYPE svg PUBLIC "-//W3C//DTD SVG 1.1//EN" "http://www.w3.org/Graphics/SVG/1.1/DTD/svg11.dtd">
<svg version="1.1" id="Layer_1" xmlns="http://www.w3.org/2000/svg" xmlns:xlink="http://www.w3.org/1999/xlink" x="0px" y="0px"
	 width="107.301px" height="17.038px" viewBox="0 0 107.301 17.038" enable-background="new 0 0 107.301 17.038"
	 xml:space="preserve">
<g>
	<path opacity="0.1" fill-rule="evenodd" clip-rule="evenodd" fill="#FFFFFF" d="M6.357,17.038C2.846,17.038,0,14.189,0,10.679
		v-4.32C0,2.846,2.846,0,6.357,0h94.581c3.515,0,6.363,2.846,6.363,6.359v4.32c0,3.51-2.848,6.359-6.363,6.359H6.357z"/>
	<g>
		<path fill="#F49A43" d="M16.269,12.378l-2.247-2.606c-0.403,0.535-0.917,0.979-1.506,1.299l2.248,2.605
			c0.358,0.415,0.987,0.462,1.402,0.103C16.581,13.421,16.628,12.793,16.269,12.378L16.269,12.378z M16.269,12.378"/>
		<path fill="#F49A43" d="M14.278,7.287c0.161-2.191-1.483-4.098-3.673-4.259c-2.191-0.162-4.097,1.484-4.26,3.674
			c-0.161,2.19,1.484,4.097,3.674,4.258C12.21,11.121,14.116,9.477,14.278,7.287L14.278,7.287z M10.092,9.969
			c-1.64-0.122-2.876-1.554-2.755-3.195c0.121-1.64,1.554-2.875,3.194-2.755c1.64,0.121,2.876,1.554,2.755,3.194
			C13.166,8.853,11.733,10.09,10.092,9.969L10.092,9.969z M10.092,9.969"/>
		<path fill="#F49A43" d="M7.998,6.823l0.661,0.049c0.068-0.912,0.863-1.599,1.775-1.531l0.049-0.661
			C9.207,4.587,8.093,5.548,7.998,6.823L7.998,6.823z M7.998,6.823"/>
	</g>
</g>
</svg>
