<?xml version="1.0" encoding="utf-8"?>
<!-- Generator: Adobe Illustrator 17.0.0, SVG Export Plug-In . SVG Version: 6.00 Build 0)  -->
<!DOCTYPE svg PUBLIC "-//W3C//DTD SVG 1.1//EN" "http://www.w3.org/Graphics/SVG/1.1/DTD/svg11.dtd">
<svg version="1.1" id="Layer_1" xmlns="http://www.w3.org/2000/svg" xmlns:xlink="http://www.w3.org/1999/xlink" x="0px" y="0px"
	 width="14.674px" height="14.354px" viewBox="0 0 14.674 14.354" enable-background="new 0 0 14.674 14.354" xml:space="preserve">
<g>
	<g>
		<g>
			<g>
				<path fill="#A4C0CE" d="M10.019,4.999c0-0.425,0-0.85,0-1.274c0-0.934-0.007-1.868,0.005-2.802
					c0.003-0.224-0.075-0.28-0.288-0.28C6.807,0.649,3.879,0.65,0.95,0.642C0.709,0.642,0.641,0.712,0.641,0.951
					c0.005,4.148,0.002,8.295,0.001,12.443c0,0.295,0.015,0.311,0.305,0.311c2.343,0,4.686-0.001,7.029,0.003
					c0.164,0,0.279-0.051,0.393-0.167c0.499-0.508,1.012-1.003,1.507-1.515c0.081-0.084,0.136-0.23,0.138-0.349
					c0.012-0.744,0.01-1.488,0.003-2.232c-0.001-0.151,0.049-0.233,0.171-0.327c0.171-0.131,0.303-0.313,0.469-0.492
					c0.004,0.06,0.01,0.11,0.01,0.16c0.001,1.061,0.004,2.121-0.006,3.182c-0.001,0.11-0.058,0.246-0.135,0.325
					c-0.603,0.617-1.208,1.232-1.835,1.824c-0.134,0.127-0.358,0.225-0.541,0.226c-2.43,0.015-4.86,0.01-7.29,0.009
					c-0.562,0-0.858-0.298-0.858-0.871C0,9.27-0.001,5.059,0.001,0.848c0-0.552,0.3-0.847,0.857-0.847C3.85,0,6.842,0,9.834,0.002
					c0.547,0,0.831,0.292,0.831,0.838c0.001,1.037,0.006,2.074-0.006,3.11c-0.002,0.152-0.065,0.318-0.145,0.452
					c-0.128,0.215-0.294,0.409-0.443,0.611C10.054,5.008,10.037,5.003,10.019,4.999z"/>
			</g>
			<g>
				<g>
					<path fill="#A4C0CE" d="M8.279,9.517c0.066-0.442,0.126-0.846,0.185-1.25c0.022-0.148,0.033-0.298,0.063-0.444
						c0.018-0.089,0.048-0.185,0.101-0.257c0.526-0.72,1.059-1.434,1.587-2.153c0.936-1.274,1.87-2.55,2.805-3.825
						c0.181-0.247,0.332-0.301,0.624-0.198c0.384,0.135,0.693,0.375,0.928,0.707c0.13,0.185,0.145,0.354-0.006,0.558
						c-0.98,1.32-1.947,2.65-2.919,3.976c-0.494,0.674-0.984,1.351-1.485,2.02C10.086,8.753,9.97,8.842,9.854,8.89
						C9.346,9.103,8.831,9.299,8.279,9.517z M13.517,2.016c-0.064,0.084-0.112,0.145-0.158,0.207
						c-0.458,0.624-0.917,1.248-1.375,1.872c-0.859,1.171-1.717,2.344-2.579,3.514c-0.19,0.258-0.33,0.527-0.296,0.853
						c0.471-0.022,0.682-0.38,0.918-0.702c0.984-1.345,1.967-2.691,2.95-4.037c0.329-0.451,0.658-0.903,1.003-1.375
						C13.817,2.231,13.674,2.128,13.517,2.016z"/>
				</g>
			</g>
		</g>
		<g>
			<rect x="1.617" y="3.671" fill="#A4C0CE" width="6.977" height="0.643"/>
		</g>
		<g>
			<rect x="1.617" y="5.626" fill="#A4C0CE" width="6.977" height="0.643"/>
		</g>
		<g>
			<rect x="1.617" y="7.58" fill="#A4C0CE" width="5.641" height="0.643"/>
		</g>
		<g>
			<rect x="1.617" y="9.535" fill="#A4C0CE" width="5.641" height="0.643"/>
		</g>
	</g>
</g>
</svg>
